<svg width="64" height="67" viewBox="0 0 64 67" fill="none" xmlns="http://www.w3.org/2000/svg">
<path d="M56.9551 25.2371L56.9152 25.1968C56.912 25.1946 56.9095 25.1915 56.9079 25.1881L32.0011 0L7.09455 25.1874C7.09168 25.1903 7.09008 25.1942 7.08718 25.1962L7.04608 25.2364C3.23754 29.1095 0.818443 34.1589 0.173381 39.582C-0.471681 45.0051 0.694305 50.4907 3.48597 55.1667C6.27765 59.8428 10.5348 63.4411 15.5807 65.3892C20.6266 67.3373 26.1716 67.5239 31.3343 65.919C31.7688 65.7846 32.2331 65.7846 32.6676 65.919C37.8299 67.5233 43.3746 67.3366 48.4202 65.3882C53.4658 63.4398 57.7225 59.8418 60.5139 55.1661C63.3054 50.4903 64.4716 45.0051 63.8267 39.5823C63.1819 34.1596 60.7632 29.1102 56.9551 25.2371ZM15.951 41.8465C15.8297 41.9692 15.7336 42.1149 15.668 42.2749C15.6024 42.4349 15.5686 42.6066 15.5687 42.7799C15.613 47.2254 16.8553 51.5743 19.162 55.3589C19.2144 55.4448 19.2386 55.5453 19.2311 55.6458C19.2237 55.7463 19.185 55.8419 19.1206 55.919C19.0562 55.9961 18.9693 56.0504 18.8724 56.0744C18.7756 56.0985 18.6737 56.091 18.5813 56.053C16.8472 55.3154 15.2719 54.2431 13.9434 52.8963C11.221 50.1427 9.69044 46.4088 9.68796 42.5149C9.68548 38.621 11.2113 34.8851 13.9303 32.1281L32.0011 13.8554L50.071 32.1281C52.7904 34.8848 54.3167 38.6207 54.3141 42.5149C54.3119 46.4088 52.7811 50.1427 50.0584 52.8963C48.7299 54.2431 47.1547 55.3154 45.4209 56.053C45.3283 56.091 45.2264 56.0985 45.1296 56.0744C45.0328 56.0504 44.9459 55.9957 44.8813 55.919C44.817 55.8419 44.7781 55.7463 44.7707 55.6455C44.7633 55.545 44.7874 55.4445 44.8398 55.3586C47.147 51.5743 48.39 47.2254 48.435 42.7799C48.435 42.6066 48.4009 42.4349 48.335 42.2745C48.269 42.1142 48.1726 41.9688 48.051 41.8462L39.5038 32.6782C39.4186 32.6063 39.3115 32.5669 39.2006 32.5669C39.0899 32.5669 38.9825 32.6063 38.8976 32.6782C38.8124 32.7497 38.7551 32.8496 38.7352 32.9598C38.7153 33.0701 38.7342 33.1836 38.7889 33.2811C42.1085 39.356 39.2539 48.0817 34.4936 52.8963L34.4685 52.9217C33.8115 53.579 32.9245 53.9475 32.0004 53.9471C31.0762 53.9468 30.1894 53.5777 29.5329 52.9201L29.5098 52.8963C24.7477 48.0817 21.8947 39.357 25.2148 33.2824C25.2693 33.1849 25.2884 33.0714 25.2685 32.9611C25.2487 32.8509 25.1912 32.751 25.1061 32.6795C25.0211 32.6076 24.9138 32.5682 24.803 32.5682C24.6922 32.5682 24.5849 32.6076 24.4999 32.6795L15.951 41.8465Z" fill="#D22F27"/>
</svg>
